<?xml version="1.0" encoding="UTF-8"?>
<svg fill="#1e293b" data-name="Capa 1" xmlns="http://www.w3.org/2000/svg" viewBox="0 0 1200 1200">
  <defs>
 
  </defs>
  <g id="uuid-798eeb64-58ee-43e7-ae2e-e32594bbc58d" data-name="productivity">
    <path  d="M503.13,136.06l19.24-7.06-2.35-6.41-19.24,7.06,2.35,6.41Zm-18.42-65.46c-8.16,5.03-12.53,14.82-10.85,24.28,1.76,9.87,8.93,16.81,17.51,19.08l3.84,10.45,25.65-9.41-3.84-10.45c4.31-6.2,5.67-14.3,2.87-21.93-5.11-13.92-21.87-20.24-35.19-12.01Zm26.7,30.04l-2.02,2.92,2.71,7.37-12.83,4.71-2.71-7.37-3.43-.92c-5.43-1.43-9.8-5.39-11.72-10.62-3.25-8.85,1.3-18.67,10.15-21.92s18.67,1.3,21.92,10.15c1.92,5.23,1.15,11.07-2.07,15.68Z"/>
    <path  d="M341.92,344.44l17.31-30.12-10.04-5.77-17.31,30.12,10.04,5.77Zm-95.22-64.98c-5.12,15.42-.14,32.91,12.35,43.36,13.04,10.9,29.91,12.1,43.53,5.71l16.37,9.4,23.07-40.16-16.37-9.4c-1.16-12.75-8.22-24.75-20.17-31.62-21.79-12.52-50.46-2.48-58.79,22.72Zm67.41,9.94l.56,6,11.55,6.63-11.54,20.08-11.55-6.63-5.46,2.54c-8.61,4.07-18.6,3.67-26.79-1.03-13.86-7.96-18.64-25.67-10.68-39.52s25.67-18.64,39.52-10.68c8.18,4.7,13.56,13.13,14.38,22.62Z"/>
    <path  d="M87.06,512.79l9.48,3.52,1.17-3.16-9.48-3.52-1.17,3.16Zm14.08-30.46c-4.67-.73-9.45,1.54-11.85,5.63-2.5,4.27-2.04,9.17,.45,12.77l-1.91,5.15,12.64,4.69,1.91-5.15c3.61-.95,6.71-3.55,8.11-7.31,2.55-6.86-1.72-14.61-9.35-15.79Zm.39,19.83l-1.7,.45-1.35,3.63-6.32-2.35,1.35-3.63-.99-1.45c-1.58-2.28-1.95-5.16-.99-7.74,1.62-4.36,6.47-6.59,10.83-4.97,4.36,1.62,6.59,6.47,4.97,10.83-.96,2.58-3.12,4.52-5.8,5.22Z"/>
    <path  d="M1096.04,151.99l28.39-6.74-2.25-9.46-28.39,6.74,2.25,9.46Zm-15.01-95.66c-12.38,5.74-20.22,18.85-19.43,32.5,.83,14.25,9.8,25.27,21.55,29.93l3.66,15.43,37.86-8.99-3.66-15.43c7.14-8.04,10.42-19.27,7.75-30.53-4.87-20.54-27.51-32.31-47.73-22.91Zm32.69,46.98l-3.35,3.79,2.58,10.88-18.93,4.49-2.58-10.88-4.7-1.88c-7.44-2.93-12.95-9.27-14.78-16.99-3.1-13.06,4.98-26.18,18.04-29.28s26.18,4.98,29.28,18.04c1.83,7.71-.24,15.85-5.57,21.82Z"/>
    <path  d="M902.42,315.48l7.69-4.22-1.41-2.56-7.69,4.22,1.41,2.56Zm-11.98-26.52c-3.13,2.65-4.35,7.07-3.04,10.97,1.38,4.06,4.85,6.54,8.63,6.95l2.29,4.18,10.25-5.62-2.29-4.18c1.43-2.9,1.48-6.41-.19-9.46-3.05-5.56-10.55-7.17-15.65-2.83Zm13.22,11l-.67,1.37,1.62,2.95-5.13,2.81-1.62-2.95-1.51-.17c-2.39-.26-4.49-1.65-5.64-3.74-1.94-3.54-.64-7.98,2.89-9.92s7.98-.64,9.92,2.89c1.15,2.09,1.2,4.61,.13,6.76Z"/>
    <path  d="M658.83,527.98l22.64,19,6.33-7.54-22.64-19-6.33,7.54Zm68.68-70.01c-12.15-6.6-27.54-5.05-38.16,3.85-11.08,9.29-14.62,23.23-11.3,35.6l-10.33,12.3,30.18,25.34,10.33-12.3c10.85,.94,21.96-3.17,29.5-12.15,13.75-16.37,9.63-41.89-10.22-52.64Zm-18.42,54.96l-5.11-.43-7.29,8.68-15.09-12.67,7.29-8.68-1.31-4.96c-2.12-7.82-.29-16.13,4.88-22.28,8.74-10.41,24.29-11.77,34.7-3.03s11.77,24.29,3.03,34.7c-5.16,6.15-13.03,9.39-21.1,8.66Z"/>
    <path  d="M1082.99,727.61l18.52,5.79,1.93-6.17-18.52-5.79-1.93,6.17Zm23.92-59.78c-9.03-.93-17.96,3.9-22.15,11.98-4.36,8.43-2.98,17.77,2.15,24.43l-3.15,10.06,24.69,7.72,3.15-10.06c6.81-2.17,12.5-7.47,14.8-14.82,4.19-13.4-4.75-27.82-19.5-29.31Zm2.73,37.96l-3.2,1.03-2.22,7.1-12.35-3.86,2.22-7.1-2.04-2.67c-3.26-4.21-4.25-9.7-2.68-14.73,2.67-8.52,11.74-13.27,20.26-10.61,8.52,2.67,13.27,11.74,10.61,20.26-1.57,5.03-5.52,8.98-10.6,10.58Z"/>
    <path  d="M832.28,912.51l18.11,34.8,11.6-6.04-18.11-34.8-11.6,6.04Zm119.77-50.97c-11.55-14.26-31.2-20.17-48.75-14.65-18.3,5.76-29.72,21.06-31.94,37.91l-18.91,9.84,24.14,46.4,18.91-9.84c12.83,6.67,28.54,7.26,42.34,.08,25.17-13.1,33.08-46.47,14.2-69.74Zm-50.5,58.04l-6.04-3.12-13.34,6.94-12.07-23.2,13.34-6.94,.92-6.74c1.38-10.67,7.84-19.92,17.29-24.84,16.01-8.33,35.76-2.1,44.09,13.91,8.33,16.01,2.1,35.76-13.91,44.09-9.45,4.92-20.74,4.9-30.27-.1Z"/>
    <path  d="M730.76,1150.65l23.52-25.35-8.45-7.84-23.52,25.35,8.45,7.84Zm-77.81-84.33c-8.42,13.81-7.5,31.88,2.28,44.81,10.21,13.49,26.3,18.43,40.94,15.28l13.77,12.78,31.36-33.79-13.77-12.78c1.73-12.63-2.43-25.85-12.49-35.18-18.33-17.02-48.39-13.69-62.1,8.88Zm63.15,24.72l-.8,5.94,9.72,9.02-15.68,16.9-9.72-9.02-5.87,1.24c-9.26,2.02-18.86-.6-25.75-6.99-11.66-10.82-12.34-29.07-1.52-40.72,10.82-11.66,29.07-12.34,40.72-1.52,6.89,6.39,10.21,15.77,8.89,25.16Z"/>
    <path  d="M455.2,734.55l26.53,19.66,6.55-8.84-26.53-19.66-6.55,8.84Zm71.86-82.74c-14-6.53-31.05-3.76-42.3,6.88-11.73,11.11-14.73,26.9-10.19,40.47l-10.68,14.42,35.38,26.21,10.68-14.42c12.17,.31,24.28-5.03,32.08-15.55,14.22-19.19,7.9-47.37-14.97-58.02Zm-16.82,62.55l-5.73-.13-7.54,10.17-17.69-13.11,7.54-10.17-1.79-5.44c-2.89-8.58-1.41-17.97,3.93-25.18,9.04-12.21,26.29-14.77,38.5-5.73,12.21,9.04,14.77,26.29,5.73,38.5-5.34,7.21-13.89,11.35-22.94,11.09Z"/>
    <path  d="M294.11,932.47l18.67-3.24-1.08-6.22-18.67,3.24,1.08,6.22Zm-5.91-62.6c-8.26,3.23-13.86,11.41-13.89,20.29-.03,9.27,5.34,16.77,12.77,20.26l1.76,10.15,24.9-4.31-1.76-10.15c4.95-4.93,7.52-12.07,6.24-19.48-2.34-13.51-16.54-22.04-30.02-16.76Zm19.32,31.75l-2.32,2.33,1.24,7.16-12.45,2.16-1.24-7.16-2.97-1.41c-4.71-2.2-8.02-6.53-8.9-11.6-1.49-8.59,4.28-16.77,12.86-18.26,8.59-1.49,16.77,4.27,18.26,12.86,.88,5.07-.79,10.27-4.48,13.92Z"/>
    <path  d="M62.06,1132.06l22.95,15.46,5.15-7.65-22.95-15.46-5.15,7.65Zm57.03-71.96c-11.96-4.94-26.13-1.98-35.14,7.36-9.4,9.74-11.31,23.07-7,34.26l-8.4,12.47,30.6,20.61,8.4-12.47c10.2-.2,20.13-5.12,26.26-14.23,11.18-16.6,4.83-39.95-14.71-48Zm-11.72,52.99l-4.8,.11-5.92,8.8-15.3-10.3,5.92-8.8-1.71-4.48c-2.74-7.07-1.86-14.99,2.34-21.22,7.11-10.56,21.45-13.35,32.01-6.24,10.56,7.11,13.35,21.45,6.25,32.01-4.2,6.23-11.2,10.03-18.79,10.14Z"/>
  </g>
  <g id="uuid-9515350e-33e1-432c-8383-ecfe9dc1f8d1" data-name="code">
    <path  d="M293.5,118.27l-17.54-15.71,15.71-17.54-5.34-4.78-20.49,22.88,22.88,20.49,4.78-5.34Zm18.8-1.04l15.71-17.54-17.54-15.71,4.78-5.34,22.88,20.49-20.49,22.88-5.34-4.78Z"/>
    <path  d="M107.75,328.81l-36.73-1.39,1.39-36.73-11.18-.42-1.82,47.91,47.91,1.82,.42-11.18Zm21.55-19.97l1.39-36.73-36.73-1.39,.42-11.18,47.91,1.82-1.82,47.91-11.18-.42Z"/>
    <path  d="M482.74,532.71l-35.31-29.01,29.01-35.31-10.75-8.83-37.84,46.06,46.06,37.84,8.83-10.75Zm36.36-3.56l29.01-35.31-35.31-29.01,8.83-10.75,46.06,37.84-37.84,46.06-10.75-8.83Z"/>
    <path  d="M878.5,107.66l-1.07-29.44,29.44-1.07-.32-8.96-38.4,1.39,1.39,38.4,8.96-.32Zm17.24,16.04l29.44-1.07-1.07-29.44,8.96-.32,1.39,38.4-38.4,1.39-.32-8.96Z"/>
    <path  d="M675.3,305.75l3.95-29.64,29.64,3.95,1.2-9.02-38.65-5.15-5.15,38.65,9.02,1.2Zm14.52,18.98l29.64,3.95,3.95-29.63,9.02,1.2-5.15,38.65-38.65-5.15,1.2-9.02Z"/>
    <path  d="M1114.41,521.46l-29.58,7.65-7.65-29.58-9,2.33,9.98,38.58,38.58-9.98-2.33-9Zm12.39-21.04l-7.65-29.58-29.58,7.65-2.33-9,38.58-9.98,9.98,38.58-9,2.33Z"/>
    <path  d="M917.52,731.5l-43.17,8.26-8.26-43.17-13.14,2.51,10.78,56.31,56.31-10.78-2.51-13.14Zm19.73-29.07l-8.26-43.17-43.17,8.26-2.51-13.14,56.31-10.78,10.78,56.31-13.14,2.51Z"/>
    <path  d="M693.45,926.37l-31.41-16.52,16.52-31.41-9.56-5.03-21.54,40.97,40.97,21.54,5.03-9.56Zm27.09-8.42l16.52-31.41-31.41-16.52,5.03-9.56,40.97,21.54-21.54,40.97-9.56-5.03Z"/>
    <path  d="M1108.64,1124l-28.81,3.68-3.68-28.81-8.77,1.12,4.8,37.57,37.57-4.8-1.12-8.77Zm14.2-18.36l-3.68-28.81-28.81,3.68-1.12-8.77,37.57-4.8,4.8,37.57-8.77,1.12Z"/>
    <path  d="M282.78,705.12l1.9-22.43,22.43,1.9,.58-6.83-29.26-2.48-2.48,29.26,6.83,.58Zm11.6,13.75l22.43,1.9,1.9-22.43,6.83,.58-2.48,29.26-29.26-2.48,.58-6.83Z"/>
    <path  d="M86.84,911.75l-7.21-18.37,18.37-7.21-2.2-5.59-23.96,9.41,9.41,23.96,5.59-2.2Zm14.46,6.31l18.37-7.21-7.21-18.37,5.59-2.2,9.41,23.96-23.96,9.41-2.2-5.59Z"/>
    <path  d="M510.05,1131.23l-39.42-.57,.57-39.42-12-.17-.75,51.42,51.42,.75,.17-12Zm22.6-21.96l.57-39.42-39.42-.57,.17-12,51.42,.75-.75,51.42-12-.17Z"/>
  </g>
  <g id="uuid-faf5abb4-fc3f-4f99-9863-0ecf782e5a2c" data-name="design">
    <g>
      <path  d="M72.45,151.02c-27.42-15.62-37.03-50.69-21.41-78.11,15.62-27.42,50.69-37.03,78.11-21.41,27.42,15.62,38.31,48.45,24.25,73.14-9.38,16.47-30.4,22.23-46.87,12.85l-8.81-5.02c-1.39-.79-3.11-.32-3.91,1.07-.34,.6-.4,1.29-.29,2.01,.71,3.5,.18,7.09-1.55,10.12-3.91,6.87-12.66,9.27-19.53,5.35ZM123.47,61.45c-21.94-12.5-49.99-4.82-62.49,17.13-12.5,21.94-4.82,49.99,17.13,62.49,1.39,.79,3.11,.32,3.91-1.07,.45-.8,.4-1.62,.3-2.14-.74-3.45-.16-7.01,1.54-10,3.91-6.87,12.66-9.27,19.53-5.35l8.81,5.02c11,6.27,24.98,2.43,31.24-8.56,10.94-19.21,1.98-45.01-19.97-57.51Z"/>
      <path  d="M70.59,90.64c4.12,2.35,9.37,.91,11.72-3.21s.91-9.37-3.21-11.72-9.37-.91-11.72,3.21-.91,9.37,3.21,11.72Z"/>
      <path  d="M96.86,79.24c4.12,2.35,9.37,.91,11.72-3.21s.91-9.37-3.21-11.72-9.37-.91-11.72,3.21-.91,9.37,3.21,11.72Z"/>
      <path  d="M121.74,93.42c4.12,2.35,9.37,.91,11.72-3.21s.91-9.37-3.21-11.72-9.37-.91-11.72,3.21-.91,9.37,3.21,11.72Z"/>
      <path  d="M125.33,121.83c4.12,2.35,9.37,.91,11.72-3.21s.91-9.37-3.21-11.72-9.37-.91-11.72,3.21-.91,9.37,3.21,11.72Z"/>
    </g>
    <g>
      <path  d="M524.73,311.03c-9.95,13.18-28.8,15.81-41.98,5.86-13.18-9.95-15.81-28.8-5.86-41.98,9.95-13.18,27.72-16.62,39.59-7.66,7.92,5.98,9.49,17.27,3.51,25.19l-3.2,4.23c-.51,.67-.38,1.59,.29,2.1,.29,.22,.64,.3,1.02,.29,1.86-.13,3.69,.38,5.15,1.49,3.3,2.49,3.96,7.19,1.46,10.49Zm-43.05-32.51c-7.96,10.55-5.86,25.62,4.69,33.58,10.55,7.96,25.62,5.86,33.58-4.69,.51-.67,.38-1.59-.29-2.1-.38-.29-.81-.31-1.09-.3-1.84,.15-3.65-.39-5.08-1.47-3.3-2.49-3.96-7.19-1.46-10.49l3.2-4.23c3.99-5.29,2.94-12.8-2.34-16.79-9.23-6.97-23.23-4.06-31.19,6.49Z"/>
      <path  d="M493.27,307.93c1.5-1.98,1.1-4.8-.88-6.3s-4.8-1.1-6.3,.88-1.1,4.8,.88,6.3,4.8,1.1,6.3-.88Z"/>
      <path  d="M489.12,293.53c1.5-1.98,1.1-4.8-.88-6.3s-4.8-1.1-6.3,.88-1.1,4.8,.88,6.3,4.8,1.1,6.3-.88Z"/>
      <path  d="M498.15,281.57c1.5-1.98,1.1-4.8-.88-6.3s-4.8-1.1-6.3,.88-1.1,4.8,.88,6.3,4.8,1.1,6.3-.88Z"/>
      <path  d="M513.14,281.62c1.5-1.98,1.1-4.8-.88-6.3s-4.8-1.1-6.3,.88-1.1,4.8,.88,6.3,4.8,1.1,6.3-.88Z"/>
    </g>
    <g>
      <path  d="M338.63,547.14c-26.6,22.03-66.22,18.32-88.26-8.28-22.03-26.6-18.32-66.22,8.28-88.26,26.6-22.03,64.42-20.49,84.26,3.45,13.24,15.98,11.01,39.72-4.97,52.95l-8.54,7.08c-1.35,1.12-1.53,3.06-.41,4.41,.48,.58,1.16,.91,1.95,1.07,3.86,.63,7.33,2.56,9.77,5.5,5.52,6.66,4.59,16.55-2.07,22.06Zm-71.98-86.88c-21.29,17.63-24.26,49.32-6.62,70.6,17.63,21.29,49.32,24.26,70.6,6.62,1.35-1.12,1.53-3.06,.41-4.41-.64-.77-1.51-1.03-2.08-1.13-3.82-.58-7.24-2.55-9.64-5.44-5.52-6.66-4.59-16.55,2.07-22.06l8.54-7.08c10.67-8.84,12.15-24.64,3.31-35.3-15.44-18.63-45.32-19.43-66.61-1.8Z"/>
      <path  d="M276.09,525.69c4-3.31,4.55-9.24,1.24-13.24s-9.24-4.55-13.24-1.24-4.55,9.24-1.24,13.24,9.24,4.55,13.24,1.24Z"/>
      <path  d="M274.58,494.39c4-3.31,4.55-9.24,1.24-13.24s-9.24-4.55-13.24-1.24-4.55,9.24-1.24,13.24,9.24,4.55,13.24,1.24Z"/>
      <path  d="M298.71,474.4c4-3.31,4.55-9.24,1.24-13.24s-9.24-4.55-13.24-1.24-4.55,9.24-1.24,13.24,9.24,4.55,13.24,1.24Z"/>
      <path  d="M329.18,481.71c4-3.31,4.55-9.24,1.24-13.24s-9.24-4.55-13.24-1.24-4.55,9.24-1.24,13.24c3.31,4,9.24,4.55,13.24,1.24Z"/>
    </g>
    <g>
      <path  d="M702.6,134.85c-17.75,1.74-33.63-11.31-35.37-29.07-1.74-17.75,11.31-33.63,29.06-35.37,17.75-1.74,33.49,9.86,35.05,25.84,1.04,10.66-6.78,20.18-17.44,21.22l-5.7,.56c-.9,.09-1.54,.87-1.45,1.77,.04,.39,.23,.73,.52,1.02,1.47,1.38,2.4,3.21,2.59,5.18,.43,4.45-2.82,8.41-7.27,8.84Zm-5.67-57.99c-14.21,1.39-24.64,14.09-23.25,28.3s14.09,24.64,28.3,23.25c.9-.09,1.54-.87,1.45-1.77-.05-.52-.35-.88-.56-1.08-1.47-1.35-2.36-3.18-2.55-5.12-.43-4.45,2.82-8.41,7.27-8.84l5.7-.56c7.12-.7,12.32-7.03,11.63-14.15-1.22-12.44-13.77-21.42-27.98-20.03Z"/>
      <path  d="M682.04,107.59c2.67-.26,4.62-2.64,4.36-5.31s-2.64-4.62-5.31-4.36-4.62,2.64-4.36,5.31,2.64,4.62,5.31,4.36Z"/>
      <path  d="M690.45,93.76c2.67-.26,4.62-2.64,4.36-5.31s-2.64-4.62-5.31-4.36-4.62,2.64-4.36,5.31,2.64,4.62,5.31,4.36Z"/>
      <path  d="M706.56,92.18c2.67-.26,4.62-2.64,4.36-5.31s-2.64-4.62-5.31-4.36-4.62,2.64-4.36,5.31,2.64,4.62,5.31,4.36Z"/>
      <path  d="M717.48,104.12c2.67-.26,4.62-2.64,4.36-5.31s-2.64-4.62-5.31-4.36-4.62,2.64-4.36,5.31,2.64,4.62,5.31,4.36Z"/>
    </g>
    <g>
      <path  d="M1127.6,323.68c-16.53,13.88-41.32,11.71-55.19-4.82s-11.71-41.32,4.82-55.19c16.53-13.88,40.18-13.06,52.67,1.82,8.34,9.93,7.04,24.78-2.89,33.11l-5.31,4.46c-.84,.71-.95,1.92-.24,2.76,.3,.36,.73,.56,1.22,.66,2.41,.38,4.59,1.57,6.13,3.4,3.48,4.14,2.94,10.32-1.21,13.8Zm-45.33-54.01c-13.23,11.11-14.96,30.92-3.86,44.15,11.11,13.23,30.92,14.97,44.15,3.86,.84-.71,.95-1.92,.24-2.76-.4-.48-.95-.64-1.3-.7-2.39-.35-4.53-1.56-6.05-3.36-3.48-4.14-2.94-10.32,1.21-13.8l5.31-4.46c6.63-5.57,7.5-15.44,1.93-22.08-9.72-11.58-28.4-11.96-41.64-.86Z"/>
      <path  d="M1088.43,310.52c2.49-2.09,2.81-5.79,.72-8.28s-5.79-2.81-8.28-.72-2.81,5.79-.72,8.28,5.79,2.81,8.28,.72Z"/>
      <path  d="M1087.36,290.96c2.49-2.09,2.81-5.79,.72-8.28s-5.79-2.81-8.28-.72-2.81,5.79-.72,8.28,5.79,2.81,8.28,.72Z"/>
      <path  d="M1102.36,278.37c2.49-2.09,2.81-5.79,.72-8.28s-5.79-2.81-8.28-.72-2.81,5.79-.72,8.28,5.79,2.81,8.28,.72Z"/>
      <path  d="M1121.44,282.82c2.49-2.09,2.81-5.79,.72-8.28s-5.79-2.81-8.28-.72-2.81,5.79-.72,8.28,5.79,2.81,8.28,.72Z"/>
    </g>
    <g>
      <path  d="M877.09,543.94c-23.7-13.87-31.71-44.48-17.84-68.18s44.48-31.71,68.18-17.84c23.7,13.87,32.85,42.54,20.36,63.88-8.33,14.24-26.67,19.04-40.91,10.71l-7.61-4.45c-1.2-.7-2.7-.31-3.41,.89-.3,.52-.36,1.11-.27,1.75,.58,3.05,.09,6.17-1.45,8.79-3.47,5.94-11.11,7.93-17.05,4.46Zm45.3-77.42c-18.97-11.1-43.45-4.69-54.54,14.28-11.1,18.97-4.69,43.45,14.28,54.54,1.2,.7,2.7,.31,3.41-.89,.4-.69,.36-1.41,.28-1.86-.61-3.01-.07-6.1,1.44-8.68,3.47-5.94,11.11-7.93,17.05-4.46l7.61,4.45c9.51,5.56,21.71,2.37,27.27-7.14,9.71-16.6,2.18-39.14-16.79-50.24Z"/>
      <path  d="M876.09,491.39c3.56,2.09,8.14,.89,10.23-2.68s.89-8.14-2.68-10.23-8.14-.89-10.23,2.68-.89,8.14,2.68,10.23Z"/>
      <path  d="M899.06,481.73c3.56,2.08,8.14,.89,10.23-2.68s.89-8.14-2.68-10.23-8.14-.89-10.23,2.68-.89,8.14,2.68,10.23Z"/>
      <path  d="M920.56,494.32c3.56,2.09,8.14,.89,10.23-2.68s.89-8.14-2.68-10.23-8.14-.89-10.23,2.68-.89,8.14,2.68,10.23Z"/>
      <path  d="M923.4,519.07c3.56,2.09,8.14,.89,10.23-2.68s.89-8.14-2.68-10.23-8.14-.89-10.23,2.68-.89,8.14,2.68,10.23Z"/>
    </g>
    <g>
      <path  d="M737.26,756.28c-31.27,20.91-73.78,12.46-94.68-18.8-20.91-31.27-12.46-73.78,18.8-94.68s72.07-15.02,90.89,13.13c12.56,18.78,7.5,44.25-11.28,56.81l-10.04,6.72c-1.59,1.06-2,3.15-.94,4.73,.46,.68,1.16,1.12,1.99,1.38,4.11,1.11,7.65,3.59,9.97,7.05,5.24,7.83,3.13,18.44-4.7,23.67Zm-68.29-102.14c-25.02,16.73-31.77,50.72-15.04,75.75,16.73,25.02,50.72,31.77,75.75,15.04,1.59-1.06,2-3.15,.94-4.73-.61-.91-1.52-1.28-2.12-1.45-4.07-1.05-7.56-3.57-9.84-6.97-5.24-7.83-3.13-18.44,4.7-23.67l10.04-6.72c12.54-8.38,15.91-25.33,7.52-37.87-14.65-21.9-46.93-26.1-71.95-9.37Z"/>
      <path  d="M671.9,726.08c4.7-3.14,5.96-9.5,2.82-14.2s-9.5-5.96-14.2-2.82-5.96,9.5-2.82,14.2,9.5,5.96,14.2,2.82Z"/>
      <path  d="M673.75,692c4.7-3.14,5.96-9.5,2.82-14.2-3.14-4.7-9.5-5.96-14.2-2.82s-5.96,9.5-2.82,14.2,9.5,5.96,14.2,2.82Z"/>
      <path  d="M702.12,673.03c4.7-3.14,5.96-9.5,2.82-14.2s-9.5-5.96-14.2-2.82-5.96,9.5-2.82,14.2,9.5,5.96,14.2,2.82Z"/>
      <path  d="M734.32,684.34c4.7-3.14,5.96-9.5,2.82-14.2s-9.5-5.96-14.2-2.82c-4.7,3.14-5.96,9.5-2.82,14.2s9.5,5.96,14.2,2.82Z"/>
    </g>
    <g>
      <path  d="M1066.21,911.29c-10.1-18.52-3.25-41.85,15.28-51.95,18.52-10.1,41.85-3.25,51.95,15.28,10.1,18.52,4.76,41.02-11.91,50.12-11.13,6.07-25.1,1.96-31.17-9.17l-3.25-5.95c-.51-.94-1.66-1.28-2.6-.76-.4,.22-.68,.59-.87,1.04-.83,2.24-2.39,4.1-4.44,5.21-4.64,2.53-10.46,.82-12.99-3.82Zm60.5-33.01c-8.09-14.82-26.74-20.31-41.56-12.22-14.82,8.09-20.31,26.74-12.22,41.56,.51,.94,1.66,1.28,2.6,.76,.54-.29,.79-.78,.92-1.11,.79-2.22,2.37-4.04,4.39-5.14,4.64-2.53,10.46-.82,12.99,3.82l3.25,5.95c4.05,7.43,13.35,10.16,20.78,6.11,12.98-7.08,16.95-24.9,8.86-39.73Z"/>
      <path  d="M1086.38,876.29c1.52,2.78,5.01,3.81,7.79,2.29s3.81-5.01,2.29-7.79-5.01-3.81-7.79-2.29-3.81,5.01-2.29,7.79Z"/>
      <path  d="M1105.32,879.04c1.52,2.78,5.01,3.81,7.79,2.29s3.81-5.01,2.29-7.79-5.01-3.81-7.79-2.29-3.81,5.01-2.29,7.79Z"/>
      <path  d="M1114.49,895.85c1.52,2.78,5.01,3.81,7.79,2.29s3.81-5.01,2.29-7.79-5.01-3.81-7.79-2.29-3.81,5.01-2.29,7.79Z"/>
      <path  d="M1106.55,913.27c1.52,2.78,5.01,3.81,7.79,2.29s3.81-5.01,2.29-7.79-5.01-3.81-7.79-2.29-3.81,5.01-2.29,7.79Z"/>
    </g>
    <g>
      <path  d="M928.45,1159.44c-32.6,15.6-71.89,1.75-87.49-30.86s-1.75-71.89,30.86-87.49c32.6-15.6,70.61-4.41,84.66,24.94,9.37,19.59,1.07,43.12-18.51,52.49l-10.47,5.01c-1.66,.79-2.34,2.72-1.54,4.37,.34,.71,.95,1.22,1.7,1.58,3.76,1.62,6.79,4.46,8.52,8.07,3.91,8.17,.45,17.96-7.71,21.87Zm-50.97-106.51c-26.09,12.49-37.17,43.89-24.69,69.99s43.89,37.17,69.99,24.69c1.66-.79,2.34-2.72,1.54-4.37-.45-.95-1.27-1.43-1.82-1.67-3.73-1.56-6.7-4.43-8.4-7.98-3.91-8.17-.45-17.96,7.71-21.87l10.47-5.01c13.08-6.26,18.6-21.92,12.34-34.99-10.93-22.84-41.06-31.26-67.16-18.77Z"/>
      <path  d="M870.43,1121.76c4.9-2.35,6.97-8.22,4.63-13.12s-8.22-6.97-13.12-4.63-6.97,8.22-4.63,13.12,8.22,6.97,13.12,4.63Z"/>
      <path  d="M876.85,1089.6c4.9-2.35,6.97-8.22,4.63-13.12s-8.22-6.97-13.12-4.63-6.97,8.22-4.63,13.12c2.35,4.9,8.22,6.97,13.12,4.63Z"/>
      <path  d="M906.44,1075.44c4.9-2.35,6.97-8.22,4.63-13.12s-8.22-6.97-13.12-4.63-6.97,8.22-4.63,13.12c2.35,4.9,8.22,6.97,13.12,4.63Z"/>
      <path  d="M935.52,1090.61c4.9-2.35,6.97-8.22,4.63-13.12s-8.22-6.97-13.12-4.63-6.97,8.22-4.63,13.12,8.22,6.97,13.12,4.63Z"/>
    </g>
    <g>
      <path  d="M124.7,743.28c-24.16,14.35-55.54,6.36-69.89-17.8-14.35-24.16-6.36-55.54,17.8-69.89,24.16-14.35,54.37-8.33,67.29,13.41,8.62,14.51,3.83,33.31-10.68,41.93l-7.76,4.61c-1.23,.73-1.62,2.27-.89,3.49,.31,.53,.82,.88,1.43,1.11,3.02,.99,5.57,2.98,7.16,5.65,3.59,6.05,1.6,13.88-4.45,17.47Zm-46.88-78.92c-19.33,11.49-25.72,36.58-14.24,55.91,11.49,19.33,36.58,25.72,55.91,14.24,1.23-.73,1.62-2.27,.89-3.49-.42-.7-1.08-1.02-1.53-1.17-3-.95-5.5-2.96-7.06-5.59-3.59-6.05-1.6-13.88,4.45-17.47l7.76-4.61c9.69-5.76,12.88-18.27,7.12-27.96-10.05-16.92-33.97-21.34-53.31-9.85Z"/>
      <path  d="M77.15,718.14c3.63-2.16,4.83-6.85,2.67-10.48s-6.85-4.83-10.48-2.67-4.83,6.85-2.67,10.48,6.85,4.83,10.48,2.67Z"/>
      <path  d="M79.88,692.79c3.63-2.16,4.83-6.85,2.67-10.48-2.16-3.63-6.85-4.83-10.48-2.67s-4.83,6.85-2.67,10.48,6.85,4.83,10.48,2.67Z"/>
      <path  d="M101.8,679.77c3.63-2.16,4.83-6.85,2.67-10.48s-6.85-4.83-10.48-2.67-4.83,6.85-2.67,10.48,6.85,4.83,10.48,2.67Z"/>
      <path  d="M125.37,689.49c3.63-2.16,4.83-6.85,2.67-10.48s-6.85-4.83-10.48-2.67-4.83,6.85-2.67,10.48,6.85,4.83,10.48,2.67Z"/>
    </g>
    <g>
      <path  d="M455.44,929.11c-19.44-23.48-16.15-58.45,7.32-77.89,23.48-19.44,58.45-16.15,77.89,7.32,19.44,23.48,18.07,56.86-3.06,74.36-14.1,11.68-35.06,9.71-46.73-4.39l-6.25-7.54c-.99-1.19-2.7-1.35-3.89-.37-.51,.42-.8,1.02-.95,1.72-.56,3.41-2.26,6.47-4.86,8.62-5.88,4.87-14.6,4.05-19.47-1.83Zm76.69-63.51c-15.56-18.79-43.52-21.42-62.31-5.86-18.79,15.56-21.42,43.52-5.86,62.31,.99,1.19,2.7,1.35,3.89,.37,.68-.56,.91-1.33,1-1.83,.51-3.37,2.25-6.39,4.81-8.51,5.88-4.87,14.6-4.05,19.47,1.83l6.25,7.54c7.8,9.42,21.74,10.73,31.16,2.93,16.45-13.62,17.16-39.99,1.6-58.78Z"/>
      <path  d="M474.39,873.92c2.92,3.53,8.15,4.02,11.68,1.1s4.02-8.15,1.1-11.68-8.15-4.02-11.68-1.1-4.02,8.15-1.1,11.68Z"/>
      <path  d="M502.01,872.59c2.92,3.53,8.15,4.02,11.68,1.1s4.02-8.15,1.1-11.68-8.15-4.02-11.68-1.1-4.02,8.15-1.1,11.68Z"/>
      <path  d="M519.66,893.89c2.92,3.53,8.15,4.02,11.68,1.1s4.02-8.15,1.1-11.68-8.15-4.02-11.68-1.1-4.02,8.15-1.1,11.68Z"/>
      <path  d="M513.2,920.79c2.92,3.53,8.15,4.02,11.68,1.1s4.02-8.15,1.1-11.68c-2.92-3.53-8.15-4.02-11.68-1.1s-4.02,8.15-1.1,11.68Z"/>
    </g>
    <g>
      <path  d="M323.66,1128.37c-14.2,14.59-37.67,14.9-52.26,.7-14.59-14.2-14.9-37.67-.7-52.26s36.48-16.06,49.61-3.28c8.76,8.53,8.95,22.59,.42,31.35l-4.56,4.69c-.72,.74-.71,1.89,.03,2.61,.32,.31,.74,.46,1.21,.51,2.3,.13,4.46,1.04,6.07,2.61,3.65,3.56,3.73,9.41,.17,13.06Zm-47.66-46.4c-11.37,11.68-11.12,30.44,.56,41.81,11.68,11.37,30.44,11.12,41.81-.56,.72-.74,.71-1.89-.03-2.61-.42-.41-.95-.51-1.29-.53-2.27-.1-4.4-1.04-5.99-2.59-3.65-3.56-3.73-9.41-.17-13.06l4.56-4.69c5.7-5.85,5.57-15.21-.28-20.9-10.22-9.95-27.79-8.54-39.16,3.14Z"/>
      <path  d="M285.65,1119.73c2.14-2.19,2.09-5.7-.1-7.84s-5.7-2.09-7.84,.1-2.09,5.7,.1,7.84,5.7,2.09,7.84-.1Z"/>
      <path  d="M282.79,1101.48c2.14-2.19,2.09-5.7-.1-7.84s-5.7-2.09-7.84,.1-2.09,5.7,.1,7.84,5.7,2.09,7.84-.1Z"/>
      <path  d="M295.68,1088.24c2.14-2.19,2.09-5.7-.1-7.84s-5.7-2.09-7.84,.1-2.09,5.7,.1,7.84,5.7,2.09,7.84-.1Z"/>
      <path  d="M314.01,1090.61c2.14-2.19,2.09-5.7-.1-7.84s-5.7-2.09-7.84,.1-2.09,5.7,.1,7.84,5.7,2.09,7.84-.1Z"/>
    </g>
  </g>
</svg>