<?xml version="1.0" encoding="UTF-8"?>
<svg id="uuid-8472e598-acd7-4b84-a8b6-138dc66c4794" data-name="Capa 1" xmlns="http://www.w3.org/2000/svg" viewBox="0 0 200 200">
  <defs>
    <style>
      .uuid-bb424f2d-17e3-4f7b-a4b5-6970fd691a3f {
        fill: #0f172a;
      }
    </style>
  </defs>
  <path class="uuid-bb424f2d-17e3-4f7b-a4b5-6970fd691a3f" d="M100,170.5c-38.85,0-70.5-31.65-70.5-70.5S61.15,29.5,100,29.5s70.5,28.48,70.5,63.45c0,23.34-18.96,42.3-42.3,42.3h-12.48c-1.97,0-3.52,1.55-3.52,3.52,0,.85,.35,1.62,.92,2.33,2.89,3.31,4.51,7.47,4.51,11.77,0,9.73-7.9,17.63-17.63,17.63Zm0-126.9c-31.09,0-56.4,25.31-56.4,56.4s25.31,56.4,56.4,56.4c1.97,0,3.53-1.55,3.53-3.53,0-1.13-.56-1.97-.99-2.47-2.89-3.24-4.44-7.4-4.44-11.63,0-9.73,7.9-17.63,17.63-17.63h12.48c15.58,0,28.2-12.62,28.2-28.2,0-27.21-25.31-49.35-56.4-49.35Z"/>
  <path class="uuid-bb424f2d-17e3-4f7b-a4b5-6970fd691a3f" d="M61.22,107.05c5.84,0,10.58-4.73,10.58-10.58s-4.73-10.57-10.58-10.57-10.58,4.73-10.58,10.57,4.73,10.58,10.58,10.58Z"/>
  <path class="uuid-bb424f2d-17e3-4f7b-a4b5-6970fd691a3f" d="M82.38,78.85c5.84,0,10.58-4.73,10.58-10.58s-4.73-10.58-10.58-10.58-10.58,4.73-10.58,10.58,4.73,10.58,10.58,10.58Z"/>
  <path class="uuid-bb424f2d-17e3-4f7b-a4b5-6970fd691a3f" d="M117.63,78.85c5.84,0,10.58-4.73,10.58-10.58s-4.73-10.58-10.58-10.58-10.58,4.73-10.58,10.58,4.73,10.58,10.58,10.58Z"/>
  <path class="uuid-bb424f2d-17e3-4f7b-a4b5-6970fd691a3f" d="M138.78,107.05c5.84,0,10.58-4.73,10.58-10.58s-4.73-10.57-10.58-10.57-10.58,4.73-10.58,10.57,4.73,10.58,10.58,10.58Z"/>
</svg>