<?xml version="1.0" encoding="UTF-8"?>
<svg id="uuid-6f81cbf0-6d27-42c6-aa11-d6a5d6af6483" data-name="Capa 1" xmlns="http://www.w3.org/2000/svg" viewBox="0 0 200 200">
  <defs>
    <style>
      .uuid-b281e5e7-92f0-41c9-a29c-6620d8b46bc1 {
        fill: #0f172a;
      }
    </style>
  </defs>
  <path class="uuid-b281e5e7-92f0-41c9-a29c-6620d8b46bc1" d="M78.86,170.5h42.3v-14.1h-42.3v14.1ZM89.72,30.56c-19.39,3.95-34.83,19.81-38.28,39.34-3.6,20.37,5.36,38.92,20.37,49.42v22.98h56.4v-22.98c12.76-8.95,21.15-23.69,21.15-40.47,0-30.6-27.99-54.78-59.64-48.29Zm30.39,77.2l-5.99,4.23v16.21h-28.2v-16.21l-5.99-4.23c-9.52-6.63-15.16-17.41-15.16-28.9,0-19.46,15.79-35.25,35.25-35.25s35.25,15.79,35.25,35.25c0,11.49-5.64,22.28-15.16,28.9Z"/>
</svg>