<?xml version="1.0" encoding="UTF-8"?>
<svg id="uuid-07993c6b-4e66-4a57-9f47-417bfe1a1d6a" data-name="Capa 1" xmlns="http://www.w3.org/2000/svg" viewBox="0 0 703.49 72.66">
  <defs>
    <style>
      .uuid-5b044572-7f4d-4dc1-817e-5bc59575eb26 {
        fill: #ec2872;
      }

      .uuid-a91f0291-21e3-4376-9d89-f844eb78fcc1 {
        fill: #2f9aeb;
      }

      .uuid-a96063a1-c66d-471a-bfd2-dfc3c04ade24 {
        fill: #ffe226;
      }
    </style>
  </defs>
  <g>
    <path class="uuid-5b044572-7f4d-4dc1-817e-5bc59575eb26" d="M62.28,71.77V0h35.38c7.99,0,15.04,1.45,21.12,4.36,6.08,2.9,10.83,7.03,14.25,12.36,3.42,5.33,5.13,11.68,5.13,19.07s-1.71,13.86-5.13,19.23-8.17,9.5-14.25,12.41c-6.08,2.9-13.13,4.36-21.12,4.36H62.28Zm24.2-18.87h10.16c3.41,0,6.41-.65,8.97-1.94,2.56-1.3,4.56-3.23,6-5.79,1.44-2.57,2.15-5.69,2.15-9.39s-.72-6.7-2.15-9.23-3.44-4.44-6-5.74c-2.56-1.29-5.56-1.94-8.97-1.94h-10.16V52.9Z"/>
    <polygon class="uuid-5b044572-7f4d-4dc1-817e-5bc59575eb26" points="170.77 53.52 170.77 44.08 201.12 44.08 201.12 26.66 170.77 26.66 170.77 18.25 205.32 18.25 205.32 0 146.98 0 146.98 71.77 206.66 71.77 206.66 53.52 170.77 53.52"/>
    <polygon class="uuid-5b044572-7f4d-4dc1-817e-5bc59575eb26" points="267.88 0 250.3 41.89 233.22 0 207.18 0 237.53 71.77 261.32 71.77 291.67 0 267.88 0"/>
    <g>
      <path class="uuid-a91f0291-21e3-4376-9d89-f844eb78fcc1" d="M343.95,2.92c-4.37-1.95-9.6-2.92-15.69-2.92h-26.86V71.77h7.59v-22.66h19.28c6.08,0,11.32-.99,15.69-2.98,4.38-1.98,7.74-4.8,10.11-8.46,2.35-3.65,3.54-8.01,3.54-13.07s-1.18-9.62-3.54-13.28c-2.36-3.65-5.72-6.46-10.11-8.4Zm.47,34.86c-3.73,3.11-9.18,4.66-16.36,4.66h-19.08V6.56h19.08c7.18,0,12.63,1.58,16.36,4.71,3.72,3.15,5.58,7.59,5.58,13.33s-1.86,10.06-5.58,13.18Z"/>
      <path class="uuid-a91f0291-21e3-4376-9d89-f844eb78fcc1" d="M391.74,0l-32.81,71.77h7.89l8.58-19.18h40.05l8.58,19.18h8L399.23,0h-7.49Zm-13.59,46.45l17.27-38.61,17.27,38.61h-34.55Z"/>
      <path class="uuid-a91f0291-21e3-4376-9d89-f844eb78fcc1" d="M486.48,46.09c4.38-1.94,7.74-4.75,10.11-8.41,2.35-3.65,3.54-8.01,3.54-13.07s-1.18-9.62-3.54-13.28c-2.36-3.65-5.72-6.46-10.11-8.4-4.37-1.95-9.6-2.92-15.69-2.92h-26.86V71.77h7.59v-22.76h19.28c2.03,0,3.83-.27,5.67-.49l16.47,23.25h8.31l-17.67-24.8c.95-.31,2.02-.49,2.9-.88Zm-15.89-3.54h-19.08V6.56h19.08c7.18,0,12.63,1.58,16.36,4.71,3.72,3.15,5.58,7.59,5.58,13.33s-1.86,10.08-5.58,13.23c-3.73,3.15-9.18,4.71-16.36,4.71Z"/>
      <polygon class="uuid-a91f0291-21e3-4376-9d89-f844eb78fcc1" points="505.76 6.56 530.98 6.56 530.98 71.77 538.57 71.77 538.57 6.56 563.79 6.56 563.79 0 505.76 0 505.76 6.56"/>
      <polygon class="uuid-a91f0291-21e3-4376-9d89-f844eb78fcc1" points="628.71 0 621.11 0 596.5 40.26 571.89 0 563.79 0 592.51 46.98 592.51 71.77 599.99 71.77 599.99 46.98 628.71 0"/>
    </g>
  </g>
  <polygon class="uuid-a96063a1-c66d-471a-bfd2-dfc3c04ade24" points="34.38 72.44 0 38.06 34.38 3.67 40.43 9.71 12.08 38.06 40.43 66.4 34.38 72.44"/>
  <polygon class="uuid-a96063a1-c66d-471a-bfd2-dfc3c04ade24" points="669.11 72.44 663.06 66.4 691.41 38.06 663.06 9.71 669.11 3.67 703.49 38.06 669.11 72.44"/>
  <rect class="uuid-a96063a1-c66d-471a-bfd2-dfc3c04ade24" x="613.86" y="33.43" width="69.64" height="8.55" transform="translate(477.52 664.53) rotate(-78.05)"/>
</svg>