<?xml version="1.0" encoding="UTF-8"?>
<svg id="uuid-62d8a442-0c9f-432e-ac0e-9846413291f9" data-name="Capa 1" xmlns="http://www.w3.org/2000/svg" viewBox="0 0 278.94 71.78">
  <polygon points="34.39 70.27 0 35.89 34.39 1.51 40.43 7.55 12.08 35.89 40.43 64.23 34.39 70.27"/>
  <polygon points="244.55 70.27 238.51 64.23 266.85 35.89 238.51 7.55 244.55 1.51 278.94 35.89 244.55 70.27"/>
  <rect x="189.31" y="31.62" width="69.64" height="8.55" transform="translate(142.62 247.74) rotate(-78.05)"/>
  <g>
    <path d="M56.53,71.78V0h35.38c7.99,0,15.04,1.46,21.12,4.36,6.08,2.9,10.84,7.02,14.25,12.35,3.42,5.33,5.13,11.69,5.13,19.08s-1.71,13.86-5.13,19.23-8.17,9.5-14.25,12.41c-6.08,2.9-13.13,4.36-21.12,4.36H56.53Zm24.2-18.87h10.15c3.42,0,6.41-.65,8.97-1.94,2.57-1.3,4.56-3.24,6-5.8,1.44-2.56,2.15-5.69,2.15-9.38s-.72-6.7-2.15-9.23c-1.44-2.53-3.43-4.44-6-5.74-2.56-1.3-5.55-1.95-8.97-1.95h-10.15V52.91Z"/>
    <path d="M147.07,71.78V0h26.87c6.08,0,11.31,.98,15.69,2.93,4.37,1.94,7.74,4.75,10.1,8.4,2.36,3.66,3.54,8.09,3.54,13.28s-1.18,9.41-3.54,13.07c-2.36,3.66-5.72,6.48-10.1,8.46-4.38,1.99-9.6,2.97-15.69,2.97h-22.66l3.38-3.59v26.25h-7.59Zm7.59-25.63l-3.38-3.69h22.46c7.18,0,12.63-1.56,16.36-4.66,3.73-3.11,5.59-7.5,5.59-13.18s-1.87-10.19-5.59-13.33c-3.73-3.15-9.17-4.71-16.36-4.71h-22.46l3.38-3.59V46.15Z"/>
  </g>
</svg>